<svg width="25" height="43" viewBox="0 0 25 43" fill="none" xmlns="http://www.w3.org/2000/svg">
<path opacity="0.8" fill-rule="evenodd" clip-rule="evenodd" d="M9.36825 3.36826C11.5249 1.21161 14.45 0 17.5 0H23.5C24.3284 0 25 0.671573 25 1.5V9.5C25 10.3284 24.3284 11 23.5 11H17.5C17.3674 11 17.2403 11.0527 17.1465 11.1465C17.0527 11.2403 17 11.3674 17 11.5V16H23.5C23.9619 16 24.398 16.2128 24.6823 16.5769C24.9666 16.941 25.0672 17.4157 24.9552 17.8638L22.9552 25.8638C22.7883 26.5316 22.1883 27 21.5 27H17V41.5C17 42.3284 16.3284 43 15.5 43H7.5C6.67157 43 6 42.3284 6 41.5V27H1.5C0.671573 27 0 26.3284 0 25.5V17.5C0 16.6716 0.671573 16 1.5 16H6V11.5C6 8.44996 7.21167 5.52492 9.36825 3.36826ZM17.5 3C15.2456 3 13.0837 3.89553 11.4895 5.4896C9.89556 7.08365 9 9.24564 9 11.5V17.5C9 18.3284 8.32843 19 7.5 19H3V24H7.5C8.32843 24 9 24.6716 9 25.5V40H14V25.5C14 24.6716 14.6716 24 15.5 24H20.3288L21.5788 19H15.5C14.6716 19 14 18.3284 14 17.5V11.5C14 10.5718 14.3687 9.68154 15.0251 9.02514C15.6815 8.36874 16.5718 8 17.5 8H22V3H17.5Z" fill="#034D8E"/>
</svg>
