<svg width="41" height="41" viewBox="0 0 41 41" fill="none" xmlns="http://www.w3.org/2000/svg">
<g opacity="0.8">
<path fill-rule="evenodd" clip-rule="evenodd" d="M11.0188 3.075C6.63154 3.075 3.075 6.63154 3.075 11.0188V29.9812C3.075 34.3684 6.63154 37.925 11.0188 37.925H29.9812C34.3684 37.925 37.925 34.3684 37.925 29.9812V11.0188C37.925 6.63154 34.3684 3.075 29.9812 3.075H11.0188ZM0 11.0188C0 4.93326 4.93326 0 11.0188 0H29.9812C36.0667 0 41 4.93325 41 11.0188V29.9812C41 36.0667 36.0667 41 29.9812 41H11.0188C4.93325 41 0 36.0667 0 29.9812V11.0188Z" fill="#034D8E"/>
<path d="M32.2875 10.25C32.2875 11.0991 31.5991 11.7875 30.75 11.7875C29.9009 11.7875 29.2125 11.0991 29.2125 10.25C29.2125 9.40086 29.9009 8.7125 30.75 8.7125C31.5991 8.7125 32.2875 9.40086 32.2875 10.25Z" fill="#034D8E"/>
<path fill-rule="evenodd" clip-rule="evenodd" d="M20.5 26.65C23.8966 26.65 26.65 23.8966 26.65 20.5C26.65 17.1034 23.8966 14.35 20.5 14.35C17.1034 14.35 14.35 17.1034 14.35 20.5C14.35 23.8966 17.1034 26.65 20.5 26.65ZM20.5 29.725C25.5948 29.725 29.725 25.5948 29.725 20.5C29.725 15.4052 25.5948 11.275 20.5 11.275C15.4052 11.275 11.275 15.4052 11.275 20.5C11.275 25.5948 15.4052 29.725 20.5 29.725Z" fill="#034D8E"/>
</g>
</svg>
