<svg width="35" height="35" viewBox="0 0 35 35" fill="none" xmlns="http://www.w3.org/2000/svg">
<path fill-rule="evenodd" clip-rule="evenodd" d="M15.7794 4.40646C9.24252 4.40646 4.02878 9.56367 4.02878 15.8213C4.02878 22.079 9.24252 27.2362 15.7794 27.2362C18.9596 27.2362 21.8267 26.0155 23.9326 24.0413C23.9721 23.9924 24.0143 23.9449 24.059 23.899C24.1272 23.8291 24.1993 23.7653 24.2745 23.7074C26.2954 21.6509 27.53 18.8664 27.53 15.8213C27.53 9.56367 22.3162 4.40646 15.7794 4.40646ZM28.3004 25.2228C30.3415 22.6249 31.5588 19.3693 31.5588 15.8213C31.5588 7.24544 24.4469 0.377686 15.7794 0.377686C7.11185 0.377686 0 7.24544 0 15.8213C0 24.3972 7.11185 31.265 15.7794 31.265C19.4008 31.265 22.7506 30.0661 25.4236 28.0446L31.5789 34.0498C32.3752 34.8267 33.6506 34.8109 34.4275 34.0146C35.2044 33.2183 35.1886 31.9429 34.3923 31.166L28.3004 25.2228Z" fill="#A1D3FF"/>
</svg>
