<svg width="33" height="35" viewBox="0 0 33 35" fill="none" xmlns="http://www.w3.org/2000/svg">
<path fill-rule="evenodd" clip-rule="evenodd" d="M16.0933 4.11765C13.2972 4.11765 11.1178 6.31606 11.1178 8.92157C11.1178 11.5271 13.2972 13.7255 16.0933 13.7255C18.8894 13.7255 21.0688 11.5271 21.0688 8.92157C21.0688 6.31606 18.8894 4.11765 16.0933 4.11765ZM7.00014 8.92157C7.00014 3.94669 11.1195 0 16.0933 0C21.0671 0 25.1864 3.94669 25.1864 8.92157C25.1864 13.8964 21.0671 17.8431 16.0933 17.8431C11.1195 17.8431 7.00014 13.8964 7.00014 8.92157Z" fill="#A1D3FF"/>
<path fill-rule="evenodd" clip-rule="evenodd" d="M2.6814 23.1834C4.39038 21.5161 6.69767 20.5882 9.09314 20.5882H23.9069C26.3023 20.5882 28.6096 21.5161 30.3186 23.1834C32.0293 24.8524 33 27.127 33 29.5098V32.9412C33 34.0782 32.0782 35 30.9412 35C29.8041 35 28.8824 34.0782 28.8824 32.9412V29.5098C28.8824 28.2524 28.3708 27.0358 27.4431 26.1308C26.5137 25.224 25.2426 24.7059 23.9069 24.7059H9.09314C7.75738 24.7059 6.48625 25.224 5.55685 26.1308C4.62918 27.0358 4.11765 28.2524 4.11765 29.5098V32.9412C4.11765 34.0782 3.19588 35 2.05882 35C0.921767 35 0 34.0782 0 32.9412V29.5098C0 27.127 0.970695 24.8524 2.6814 23.1834Z" fill="#A1D3FF"/>
</svg>
